# xmcd CD database file
#
# Track frame offsets:
#	150
#	17565
#	31992
#	47955
#	67130
#	85277
#	105820
#	122630
#	134507
#	152180
#
# Disc length: 2267 seconds
#
# Revision: 2
# Processed by: cddbd v1.5.1PL0 Copyright (c) Steve Scherf et al.
# Submitted via: CDex 1.51
#
DISCID=8108d90a
DTITLE=Garth Brooks - In Pieces
DYEAR=1993
DGENRE=Country
TTITLE0=Standing Out Side The Fire
TTITLE1=The Night I Called The Old Man
TTITLE2=American Honky-Tonk Bar Association
TTITLE3=One Night A Day
TTITLE4=Kickin' And Screamin'
TTITLE5=Ain't Goin' Down (Til The Sun Comes Up)
TTITLE6=The Red Strokes
TTITLE7=Callin' Baton Rouge
TTITLE8=The Night Will Only Know
TTITLE9=The Cowboy Song
EXTD=Original 1993 Release YEAR: 1993
EXTT0=
EXTT1=
EXTT2=
EXTT3=
EXTT4=
EXTT5=
EXTT6=
EXTT7=
EXTT8=
EXTT9=
PLAYORDER=
